<svg width="21" height="21" viewBox="0 0 21 21" fill="none" xmlns="http://www.w3.org/2000/svg">
<g clip-path="url(#clip0_410_926)">
<path d="M20.2617 10.6871C20.2617 9.86767 20.1952 9.26973 20.0513 8.64966H10.6947V12.348H16.1868C16.0762 13.2671 15.4782 14.6512 14.1494 15.5813L14.1308 15.7051L17.0892 17.9969L17.2942 18.0174C19.1765 16.2789 20.2617 13.721 20.2617 10.6871Z" fill="#4285F4"/>
<path d="M10.6947 20.4313C13.3854 20.4313 15.6442 19.5454 17.2941 18.0174L14.1494 15.5813C13.3079 16.1682 12.1784 16.5779 10.6947 16.5779C8.05932 16.5779 5.8226 14.8395 5.02527 12.4366L4.9084 12.4466L1.83222 14.8273L1.79199 14.9391C3.43077 18.1945 6.79695 20.4313 10.6947 20.4313Z" fill="#34A853"/>
<path d="M5.02526 12.4366C4.81488 11.8165 4.69313 11.1521 4.69313 10.4656C4.69313 9.77902 4.81488 9.11467 5.01419 8.4946L5.00862 8.36254L1.89389 5.9436L1.79198 5.99208C1.11656 7.34299 0.729004 8.86002 0.729004 10.4656C0.729004 12.0712 1.11656 13.5881 1.79198 14.939L5.02526 12.4366Z" fill="#FBBC05"/>
<path d="M10.6947 4.35336C12.566 4.35336 13.8283 5.16168 14.548 5.83718L17.3605 3.09107C15.6332 1.4855 13.3854 0.5 10.6947 0.5C6.79695 0.5 3.43077 2.73672 1.79199 5.99214L5.01421 8.49466C5.8226 6.09183 8.05932 4.35336 10.6947 4.35336Z" fill="#EB4335"/>
</g>
<defs>
<clipPath id="clip0_410_926">
<rect width="20" height="20" fill="white" transform="translate(0.5 0.5)"/>
</clipPath>
</defs>
</svg>
