<svg width="29" height="28" viewBox="0 0 29 28" fill="none" xmlns="http://www.w3.org/2000/svg">
<path d="M14.9932 5C9.73804 5 5.5 8.66793 5.5 13.1208C5.5 16.0112 7.26303 18.5421 9.90757 19.9873L9.01249 23.6039C8.99562 23.6581 8.99302 23.7163 9.005 23.772C9.01697 23.8277 9.04305 23.8787 9.0803 23.9193C9.13462 23.9711 9.20452 23.9998 9.27695 24C9.337 23.9948 9.39398 23.9691 9.43968 23.9267L13.2912 21.117C13.8598 21.2019 14.4329 21.246 15.0068 21.249C20.2552 21.249 24.5 17.5811 24.5 13.1208C24.5 8.66059 20.2416 5 14.9932 5Z" fill="#423630"/>
</svg>
